<svg width="62" height="25" viewBox="0 0 62 25" fill="none" xmlns="http://www.w3.org/2000/svg">
<path d="M16.4545 8.25C16.2955 7.69697 16.072 7.20833 15.7841 6.78409C15.4962 6.35227 15.1439 5.98864 14.7273 5.69318C14.3182 5.39015 13.8485 5.15909 13.3182 5C12.7955 4.84091 12.2159 4.76136 11.5795 4.76136C10.3902 4.76136 9.3447 5.05682 8.44318 5.64773C7.54924 6.23864 6.85227 7.09848 6.35227 8.22727C5.85227 9.34848 5.60227 10.7197 5.60227 12.3409C5.60227 13.9621 5.84849 15.3409 6.34091 16.4773C6.83333 17.6136 7.5303 18.4811 8.43182 19.0795C9.33333 19.6705 10.3977 19.9659 11.625 19.9659C12.7386 19.9659 13.6894 19.7689 14.4773 19.375C15.2727 18.9735 15.8788 18.4091 16.2955 17.6818C16.7197 16.9545 16.9318 16.0947 16.9318 15.1023L17.9318 15.25H11.9318V11.5455H21.6705V14.4773C21.6705 16.5227 21.2386 18.2803 20.375 19.75C19.5114 21.2121 18.322 22.3409 16.8068 23.1364C15.2917 23.9242 13.5568 24.3182 11.6023 24.3182C9.42045 24.3182 7.50379 23.8371 5.85227 22.875C4.20076 21.9053 2.91288 20.5303 1.98864 18.75C1.07197 16.9621 0.613636 14.8409 0.613636 12.3864C0.613636 10.5 0.886364 8.81818 1.43182 7.34091C1.98485 5.85606 2.75758 4.59848 3.75 3.56818C4.74242 2.53788 5.89773 1.75379 7.21591 1.21591C8.53409 0.678029 9.96212 0.40909 11.5 0.40909C12.8182 0.40909 14.0455 0.602272 15.1818 0.988636C16.3182 1.36742 17.3258 1.9053 18.2045 2.60227C19.0909 3.29924 19.8144 4.12879 20.375 5.09091C20.9356 6.04545 21.2955 7.09848 21.4545 8.25H16.4545ZM21.2065 24V0.727272H26.1269V10.3295H36.1156V0.727272H41.0247V24H36.1156V14.3864H26.1269V24H21.2065ZM61.4556 8.875H56.4783C56.3874 8.23106 56.2018 7.65909 55.9215 7.15909C55.6412 6.65151 55.2813 6.2197 54.8419 5.86364C54.4025 5.50757 53.895 5.23485 53.3192 5.04545C52.751 4.85606 52.1336 4.76136 51.4669 4.76136C50.2624 4.76136 49.2131 5.06061 48.3192 5.65909C47.4253 6.25 46.7321 7.11364 46.2397 8.25C45.7472 9.37879 45.501 10.75 45.501 12.3636C45.501 14.0227 45.7472 15.4167 46.2397 16.5455C46.7397 17.6742 47.4366 18.5265 48.3306 19.1023C49.2245 19.678 50.2586 19.9659 51.4328 19.9659C52.0919 19.9659 52.7018 19.8788 53.2624 19.7045C53.8306 19.5303 54.3344 19.2765 54.7738 18.9432C55.2131 18.6023 55.5768 18.1894 55.8647 17.7045C56.1601 17.2197 56.3647 16.6667 56.4783 16.0455L61.4556 16.0682C61.3268 17.1364 61.0048 18.1667 60.4897 19.1591C59.9821 20.1439 59.2965 21.0265 58.4328 21.8068C57.5768 22.5795 56.5541 23.1932 55.3647 23.6477C54.1828 24.0947 52.8457 24.3182 51.3533 24.3182C49.2775 24.3182 47.4215 23.8485 45.7851 22.9091C44.1563 21.9697 42.8684 20.6098 41.9215 18.8295C40.9821 17.0492 40.5124 14.8939 40.5124 12.3636C40.5124 9.82576 40.9897 7.66667 41.9442 5.88636C42.8988 4.10606 44.1942 2.75 45.8306 1.81818C47.4669 0.878787 49.3078 0.40909 51.3533 0.40909C52.7018 0.40909 53.9518 0.598484 55.1033 0.977272C56.2624 1.35606 57.2889 1.90909 58.1828 2.63636C59.0768 3.35606 59.8041 4.23864 60.3647 5.28409C60.9328 6.32954 61.2965 7.52651 61.4556 8.875Z" fill="white"/>
</svg>
